<svg width="853" height="180" viewBox="0 0 853 180" fill="none" xmlns="http://www.w3.org/2000/svg">
<path d="M90 0L105 75L180 90L105 105L90 180L75 105L0 90L75 75L90 0Z" fill="url(#paint0_linear_2006_211)"/>
<path d="M170 10L174 26L190 30L174 34L170 50L166 34L150 30L166 26L170 10Z" fill="url(#paint1_linear_2006_211)"/>
<path d="M220.705 87.9668C220.705 82.9655 221.648 78.3086 223.535 73.9961C225.422 69.6536 228.147 65.8952 231.711 62.7207C235.305 59.5163 239.677 57.0007 244.828 55.1738C250.009 53.347 255.864 52.4336 262.393 52.4336C268.113 52.4336 273.354 53.0176 278.115 54.1855C282.907 55.3236 287.354 57.0755 291.457 59.4414L284.898 70.2227C283.671 69.4141 282.248 68.6953 280.631 68.0664C279.044 67.4375 277.337 66.9134 275.51 66.4941C273.713 66.0449 271.841 65.7005 269.895 65.4609C267.978 65.2214 266.076 65.1016 264.189 65.1016C259.637 65.1016 255.579 65.6706 252.016 66.8086C248.452 67.9167 245.442 69.4889 242.986 71.5254C240.561 73.5319 238.704 75.9427 237.416 78.7578C236.158 81.543 235.529 84.6126 235.529 87.9668C235.529 91.4408 236.188 94.6302 237.506 97.5352C238.824 100.44 240.725 102.956 243.211 105.082C245.727 107.178 248.781 108.826 252.375 110.023C255.999 111.191 260.087 111.775 264.639 111.775C266.705 111.775 268.757 111.626 270.793 111.326C272.829 111.027 274.791 110.622 276.678 110.113C278.594 109.574 280.436 108.945 282.203 108.227C283.97 107.478 285.617 106.669 287.145 105.801L293.703 116.582C289.87 119.038 285.438 120.969 280.406 122.377C275.375 123.755 270.029 124.443 264.369 124.443C257.152 124.443 250.818 123.515 245.367 121.658C239.917 119.771 235.365 117.196 231.711 113.932C228.057 110.637 225.302 106.774 223.445 102.342C221.618 97.8796 220.705 93.0879 220.705 87.9668Z" fill="#FB5607"/>
<path d="M220.705 87.9668C220.705 82.9655 221.648 78.3086 223.535 73.9961C225.422 69.6536 228.147 65.8952 231.711 62.7207C235.305 59.5163 239.677 57.0007 244.828 55.1738C250.009 53.347 255.864 52.4336 262.393 52.4336C268.113 52.4336 273.354 53.0176 278.115 54.1855C282.907 55.3236 287.354 57.0755 291.457 59.4414L284.898 70.2227C283.671 69.4141 282.248 68.6953 280.631 68.0664C279.044 67.4375 277.337 66.9134 275.51 66.4941C273.713 66.0449 271.841 65.7005 269.895 65.4609C267.978 65.2214 266.076 65.1016 264.189 65.1016C259.637 65.1016 255.579 65.6706 252.016 66.8086C248.452 67.9167 245.442 69.4889 242.986 71.5254C240.561 73.5319 238.704 75.9427 237.416 78.7578C236.158 81.543 235.529 84.6126 235.529 87.9668C235.529 91.4408 236.188 94.6302 237.506 97.5352C238.824 100.44 240.725 102.956 243.211 105.082C245.727 107.178 248.781 108.826 252.375 110.023C255.999 111.191 260.087 111.775 264.639 111.775C266.705 111.775 268.757 111.626 270.793 111.326C272.829 111.027 274.791 110.622 276.678 110.113C278.594 109.574 280.436 108.945 282.203 108.227C283.97 107.478 285.617 106.669 287.145 105.801L293.703 116.582C289.87 119.038 285.438 120.969 280.406 122.377C275.375 123.755 270.029 124.443 264.369 124.443C257.152 124.443 250.818 123.515 245.367 121.658C239.917 119.771 235.365 117.196 231.711 113.932C228.057 110.637 225.302 106.774 223.445 102.342C221.618 97.8796 220.705 93.0879 220.705 87.9668Z" fill="url(#paint2_linear_2006_211)"/>
<path d="M309.426 53.2871H323.666V111.012H364.5V123.5H309.426V53.2871Z" fill="#FB5607"/>
<path d="M309.426 53.2871H323.666V111.012H364.5V123.5H309.426V53.2871Z" fill="url(#paint3_linear_2006_211)"/>
<path d="M378.336 53.2871H438.127V65.7754H392.576V79.791H432.916V91.5156H392.576V111.057H439.07V123.5H378.336V53.2871Z" fill="#FB5607"/>
<path d="M378.336 53.2871H438.127V65.7754H392.576V79.791H432.916V91.5156H392.576V111.057H439.07V123.5H378.336V53.2871Z" fill="url(#paint4_linear_2006_211)"/>
<path d="M478.826 53.2871H493.92L527.881 123.5H512.922L507.307 111.686H466.293L460.857 123.5H445.854L478.826 53.2871ZM501.691 99.9609L486.508 68.0664L471.729 99.9609H501.691Z" fill="#FB5607"/>
<path d="M478.826 53.2871H493.92L527.881 123.5H512.922L507.307 111.686H466.293L460.857 123.5H445.854L478.826 53.2871ZM501.691 99.9609L486.508 68.0664L471.729 99.9609H501.691Z" fill="url(#paint5_linear_2006_211)"/>
<path d="M538.797 53.2871H574.51C579.9 53.2871 584.572 53.8561 588.525 54.9941C592.479 56.1022 595.758 57.7194 598.363 59.8457C600.969 61.972 602.9 64.5625 604.158 67.6172C605.446 70.6719 606.09 74.1309 606.09 77.9941C606.09 80.5996 605.775 83.0853 605.146 85.4512C604.518 87.7871 603.544 89.9434 602.227 91.9199C600.939 93.8965 599.307 95.6634 597.33 97.2207C595.354 98.748 593.033 100.021 590.367 101.039L605.641 123.5H588.211L575.004 103.555H574.6L553.037 103.51V123.5H538.797V53.2871ZM574.869 91.2012C577.564 91.2012 579.915 90.8867 581.922 90.2578C583.958 89.6289 585.65 88.7454 586.998 87.6074C588.376 86.4694 589.394 85.0918 590.053 83.4746C590.742 81.8275 591.086 80.0007 591.086 77.9941C591.086 74.071 589.738 71.0462 587.043 68.9199C584.348 66.7637 580.29 65.6855 574.869 65.6855H553.037V91.2012H574.869Z" fill="#FB5607"/>
<path d="M538.797 53.2871H574.51C579.9 53.2871 584.572 53.8561 588.525 54.9941C592.479 56.1022 595.758 57.7194 598.363 59.8457C600.969 61.972 602.9 64.5625 604.158 67.6172C605.446 70.6719 606.09 74.1309 606.09 77.9941C606.09 80.5996 605.775 83.0853 605.146 85.4512C604.518 87.7871 603.544 89.9434 602.227 91.9199C600.939 93.8965 599.307 95.6634 597.33 97.2207C595.354 98.748 593.033 100.021 590.367 101.039L605.641 123.5H588.211L575.004 103.555H574.6L553.037 103.51V123.5H538.797V53.2871ZM574.869 91.2012C577.564 91.2012 579.915 90.8867 581.922 90.2578C583.958 89.6289 585.65 88.7454 586.998 87.6074C588.376 86.4694 589.394 85.0918 590.053 83.4746C590.742 81.8275 591.086 80.0007 591.086 77.9941C591.086 74.071 589.738 71.0462 587.043 68.9199C584.348 66.7637 580.29 65.6855 574.869 65.6855H553.037V91.2012H574.869Z" fill="url(#paint6_linear_2006_211)"/>
<path d="M625.451 106.789C628.985 108.526 632.758 109.799 636.771 110.607C640.814 111.386 644.753 111.775 648.586 111.775C652 111.775 654.95 111.506 657.436 110.967C659.921 110.398 661.973 109.634 663.59 108.676C665.207 107.717 666.405 106.579 667.184 105.262C667.962 103.944 668.352 102.521 668.352 100.994C668.352 98.9277 667.648 97.0859 666.24 95.4688C664.833 93.8216 662.691 92.5938 659.816 91.7852C656.971 90.9466 653.363 90.6172 648.99 90.7969C644.648 90.9766 639.527 91.8301 633.627 93.3574L633.672 82.8457L659.906 65.7754H622.756V53.2871H678.953V65.5059L655.863 80.1504C660.086 80.1504 663.859 80.6895 667.184 81.7676C670.508 82.8457 673.308 84.3281 675.584 86.2148C677.86 88.1016 679.597 90.3327 680.795 92.9082C681.993 95.4837 682.592 98.2539 682.592 101.219C682.592 104.723 681.813 107.912 680.256 110.787C678.729 113.632 676.497 116.073 673.562 118.109C670.628 120.116 667.034 121.673 662.781 122.781C658.559 123.889 653.767 124.443 648.406 124.443C642.716 124.443 637.46 123.844 632.639 122.646C627.817 121.419 623.235 119.727 618.893 117.57L625.451 106.789Z" fill="#FB5607"/>
<path d="M625.451 106.789C628.985 108.526 632.758 109.799 636.771 110.607C640.814 111.386 644.753 111.775 648.586 111.775C652 111.775 654.95 111.506 657.436 110.967C659.921 110.398 661.973 109.634 663.59 108.676C665.207 107.717 666.405 106.579 667.184 105.262C667.962 103.944 668.352 102.521 668.352 100.994C668.352 98.9277 667.648 97.0859 666.24 95.4688C664.833 93.8216 662.691 92.5938 659.816 91.7852C656.971 90.9466 653.363 90.6172 648.99 90.7969C644.648 90.9766 639.527 91.8301 633.627 93.3574L633.672 82.8457L659.906 65.7754H622.756V53.2871H678.953V65.5059L655.863 80.1504C660.086 80.1504 663.859 80.6895 667.184 81.7676C670.508 82.8457 673.308 84.3281 675.584 86.2148C677.86 88.1016 679.597 90.3327 680.795 92.9082C681.993 95.4837 682.592 98.2539 682.592 101.219C682.592 104.723 681.813 107.912 680.256 110.787C678.729 113.632 676.497 116.073 673.562 118.109C670.628 120.116 667.034 121.673 662.781 122.781C658.559 123.889 653.767 124.443 648.406 124.443C642.716 124.443 637.46 123.844 632.639 122.646C627.817 121.419 623.235 119.727 618.893 117.57L625.451 106.789Z" fill="url(#paint7_linear_2006_211)"/>
<path d="M698.539 90.3477C698.539 83.9688 699.482 78.4134 701.369 73.6816C703.286 68.9199 705.891 64.9668 709.186 61.8223C712.51 58.6777 716.418 56.3268 720.91 54.7695C725.402 53.2122 730.254 52.4336 735.465 52.4336C737.651 52.4336 739.867 52.5534 742.113 52.793C744.389 53.0026 746.62 53.347 748.807 53.8262C750.993 54.3053 753.104 54.9342 755.141 55.7129C757.207 56.4616 759.124 57.36 760.891 58.4082L754.557 69.1895C753.239 68.4408 751.831 67.8118 750.334 67.3027C748.867 66.7637 747.339 66.3444 745.752 66.0449C744.165 65.7155 742.562 65.4759 740.945 65.3262C739.328 65.1764 737.741 65.1016 736.184 65.1016C732.71 65.1016 729.565 65.5508 726.75 66.4492C723.965 67.3477 721.554 68.6204 719.518 70.2676C717.481 71.9147 715.849 73.8913 714.621 76.1973C713.423 78.4733 712.674 81.0039 712.375 83.7891C713.932 82.5612 715.654 81.498 717.541 80.5996C719.428 79.7012 721.419 78.9674 723.516 78.3984C725.642 77.7995 727.813 77.3652 730.029 77.0957C732.275 76.7962 734.521 76.6465 736.768 76.6465C741.14 76.6465 745.108 77.1706 748.672 78.2188C752.266 79.2669 755.335 80.7793 757.881 82.7559C760.426 84.7324 762.388 87.1432 763.766 89.9883C765.173 92.8034 765.877 96.0078 765.877 99.6016C765.877 103.135 765.173 106.415 763.766 109.439C762.388 112.464 760.337 115.1 757.611 117.346C754.886 119.562 751.502 121.314 747.459 122.602C743.416 123.859 738.729 124.488 733.398 124.488C728.217 124.488 723.486 123.829 719.203 122.512C714.921 121.194 711.252 119.143 708.197 116.357C705.143 113.572 702.762 110.038 701.055 105.756C699.378 101.443 698.539 96.3073 698.539 90.3477ZM712.689 96.9512C713.408 101.863 715.564 105.576 719.158 108.092C722.752 110.577 727.469 111.82 733.309 111.82C736.243 111.82 738.849 111.521 741.125 110.922C743.401 110.323 745.318 109.499 746.875 108.451C748.432 107.373 749.615 106.1 750.424 104.633C751.232 103.165 751.637 101.563 751.637 99.8262C751.637 98.3587 751.322 96.9811 750.693 95.6934C750.064 94.4056 749.076 93.2975 747.729 92.3691C746.411 91.4108 744.704 90.6621 742.607 90.123C740.511 89.554 737.98 89.2695 735.016 89.2695C732.53 89.2695 730.179 89.4642 727.963 89.8535C725.747 90.2428 723.695 90.7819 721.809 91.4707C719.922 92.1595 718.2 92.9681 716.643 93.8965C715.115 94.8249 713.798 95.8431 712.689 96.9512Z" fill="#FB5607"/>
<path d="M698.539 90.3477C698.539 83.9688 699.482 78.4134 701.369 73.6816C703.286 68.9199 705.891 64.9668 709.186 61.8223C712.51 58.6777 716.418 56.3268 720.91 54.7695C725.402 53.2122 730.254 52.4336 735.465 52.4336C737.651 52.4336 739.867 52.5534 742.113 52.793C744.389 53.0026 746.62 53.347 748.807 53.8262C750.993 54.3053 753.104 54.9342 755.141 55.7129C757.207 56.4616 759.124 57.36 760.891 58.4082L754.557 69.1895C753.239 68.4408 751.831 67.8118 750.334 67.3027C748.867 66.7637 747.339 66.3444 745.752 66.0449C744.165 65.7155 742.562 65.4759 740.945 65.3262C739.328 65.1764 737.741 65.1016 736.184 65.1016C732.71 65.1016 729.565 65.5508 726.75 66.4492C723.965 67.3477 721.554 68.6204 719.518 70.2676C717.481 71.9147 715.849 73.8913 714.621 76.1973C713.423 78.4733 712.674 81.0039 712.375 83.7891C713.932 82.5612 715.654 81.498 717.541 80.5996C719.428 79.7012 721.419 78.9674 723.516 78.3984C725.642 77.7995 727.813 77.3652 730.029 77.0957C732.275 76.7962 734.521 76.6465 736.768 76.6465C741.14 76.6465 745.108 77.1706 748.672 78.2188C752.266 79.2669 755.335 80.7793 757.881 82.7559C760.426 84.7324 762.388 87.1432 763.766 89.9883C765.173 92.8034 765.877 96.0078 765.877 99.6016C765.877 103.135 765.173 106.415 763.766 109.439C762.388 112.464 760.337 115.1 757.611 117.346C754.886 119.562 751.502 121.314 747.459 122.602C743.416 123.859 738.729 124.488 733.398 124.488C728.217 124.488 723.486 123.829 719.203 122.512C714.921 121.194 711.252 119.143 708.197 116.357C705.143 113.572 702.762 110.038 701.055 105.756C699.378 101.443 698.539 96.3073 698.539 90.3477ZM712.689 96.9512C713.408 101.863 715.564 105.576 719.158 108.092C722.752 110.577 727.469 111.82 733.309 111.82C736.243 111.82 738.849 111.521 741.125 110.922C743.401 110.323 745.318 109.499 746.875 108.451C748.432 107.373 749.615 106.1 750.424 104.633C751.232 103.165 751.637 101.563 751.637 99.8262C751.637 98.3587 751.322 96.9811 750.693 95.6934C750.064 94.4056 749.076 93.2975 747.729 92.3691C746.411 91.4108 744.704 90.6621 742.607 90.123C740.511 89.554 737.98 89.2695 735.016 89.2695C732.53 89.2695 730.179 89.4642 727.963 89.8535C725.747 90.2428 723.695 90.7819 721.809 91.4707C719.922 92.1595 718.2 92.9681 716.643 93.8965C715.115 94.8249 713.798 95.8431 712.689 96.9512Z" fill="url(#paint8_linear_2006_211)"/>
<path d="M779.803 88.2363C779.803 82.5762 780.656 77.5 782.363 73.0078C784.07 68.5156 786.496 64.7122 789.641 61.5977C792.785 58.4531 796.604 56.0573 801.096 54.4102C805.588 52.763 810.619 51.9395 816.189 51.9395C821.76 51.9395 826.791 52.763 831.283 54.4102C835.775 56.0573 839.594 58.4531 842.738 61.5977C845.883 64.7122 848.309 68.5156 850.016 73.0078C851.723 77.5 852.576 82.5762 852.576 88.2363C852.576 93.8965 851.723 98.9727 850.016 103.465C848.309 107.957 845.883 111.76 842.738 114.875C839.594 117.99 835.775 120.37 831.283 122.018C826.791 123.665 821.76 124.488 816.189 124.488C810.619 124.488 805.588 123.665 801.096 122.018C796.604 120.37 792.785 117.99 789.641 114.875C786.496 111.76 784.07 107.957 782.363 103.465C780.656 98.9727 779.803 93.8965 779.803 88.2363ZM794.043 88.1914C794.043 92.0247 794.552 95.4089 795.57 98.3438C796.618 101.279 798.101 103.749 800.018 105.756C801.934 107.732 804.255 109.245 806.98 110.293C809.706 111.311 812.775 111.82 816.189 111.82C819.604 111.82 822.673 111.311 825.398 110.293C828.124 109.245 830.445 107.732 832.361 105.756C834.278 103.749 835.745 101.279 836.764 98.3438C837.812 95.4089 838.336 92.0247 838.336 88.1914C838.336 84.388 837.812 81.0339 836.764 78.1289C835.745 75.194 834.278 72.7233 832.361 70.7168C830.445 68.7103 828.124 67.1979 825.398 66.1797C822.673 65.1315 819.604 64.6074 816.189 64.6074C812.775 64.6074 809.706 65.1315 806.98 66.1797C804.255 67.1979 801.934 68.7103 800.018 70.7168C798.101 72.7233 796.618 75.194 795.57 78.1289C794.552 81.0339 794.043 84.388 794.043 88.1914Z" fill="#FB5607"/>
<path d="M779.803 88.2363C779.803 82.5762 780.656 77.5 782.363 73.0078C784.07 68.5156 786.496 64.7122 789.641 61.5977C792.785 58.4531 796.604 56.0573 801.096 54.4102C805.588 52.763 810.619 51.9395 816.189 51.9395C821.76 51.9395 826.791 52.763 831.283 54.4102C835.775 56.0573 839.594 58.4531 842.738 61.5977C845.883 64.7122 848.309 68.5156 850.016 73.0078C851.723 77.5 852.576 82.5762 852.576 88.2363C852.576 93.8965 851.723 98.9727 850.016 103.465C848.309 107.957 845.883 111.76 842.738 114.875C839.594 117.99 835.775 120.37 831.283 122.018C826.791 123.665 821.76 124.488 816.189 124.488C810.619 124.488 805.588 123.665 801.096 122.018C796.604 120.37 792.785 117.99 789.641 114.875C786.496 111.76 784.07 107.957 782.363 103.465C780.656 98.9727 779.803 93.8965 779.803 88.2363ZM794.043 88.1914C794.043 92.0247 794.552 95.4089 795.57 98.3438C796.618 101.279 798.101 103.749 800.018 105.756C801.934 107.732 804.255 109.245 806.98 110.293C809.706 111.311 812.775 111.82 816.189 111.82C819.604 111.82 822.673 111.311 825.398 110.293C828.124 109.245 830.445 107.732 832.361 105.756C834.278 103.749 835.745 101.279 836.764 98.3438C837.812 95.4089 838.336 92.0247 838.336 88.1914C838.336 84.388 837.812 81.0339 836.764 78.1289C835.745 75.194 834.278 72.7233 832.361 70.7168C830.445 68.7103 828.124 67.1979 825.398 66.1797C822.673 65.1315 819.604 64.6074 816.189 64.6074C812.775 64.6074 809.706 65.1315 806.98 66.1797C804.255 67.1979 801.934 68.7103 800.018 70.7168C798.101 72.7233 796.618 75.194 795.57 78.1289C794.552 81.0339 794.043 84.388 794.043 88.1914Z" fill="url(#paint9_linear_2006_211)"/>
<defs>
<linearGradient id="paint0_linear_2006_211" x1="150" y1="10" x2="190" y2="50" gradientUnits="userSpaceOnUse">
<stop stop-color="#FFD966"/>
<stop offset="0.5" stop-color="#F4B400"/>
<stop offset="1" stop-color="#C58B00"/>
</linearGradient>
<linearGradient id="paint1_linear_2006_211" x1="150" y1="10" x2="190" y2="50" gradientUnits="userSpaceOnUse">
<stop stop-color="#FFD966"/>
<stop offset="0.5" stop-color="#F4B400"/>
<stop offset="1" stop-color="#C58B00"/>
</linearGradient>
<linearGradient id="paint2_linear_2006_211" x1="215" y1="32.5" x2="254.802" y2="255.392" gradientUnits="userSpaceOnUse">
<stop stop-color="#FFD966"/>
<stop offset="0.5" stop-color="#F4B400"/>
<stop offset="1" stop-color="#C58B00"/>
</linearGradient>
<linearGradient id="paint3_linear_2006_211" x1="215" y1="32.5" x2="254.802" y2="255.392" gradientUnits="userSpaceOnUse">
<stop stop-color="#FFD966"/>
<stop offset="0.5" stop-color="#F4B400"/>
<stop offset="1" stop-color="#C58B00"/>
</linearGradient>
<linearGradient id="paint4_linear_2006_211" x1="215" y1="32.5" x2="254.802" y2="255.392" gradientUnits="userSpaceOnUse">
<stop stop-color="#FFD966"/>
<stop offset="0.5" stop-color="#F4B400"/>
<stop offset="1" stop-color="#C58B00"/>
</linearGradient>
<linearGradient id="paint5_linear_2006_211" x1="215" y1="32.5" x2="254.802" y2="255.392" gradientUnits="userSpaceOnUse">
<stop stop-color="#FFD966"/>
<stop offset="0.5" stop-color="#F4B400"/>
<stop offset="1" stop-color="#C58B00"/>
</linearGradient>
<linearGradient id="paint6_linear_2006_211" x1="215" y1="32.5" x2="254.802" y2="255.392" gradientUnits="userSpaceOnUse">
<stop stop-color="#FFD966"/>
<stop offset="0.5" stop-color="#F4B400"/>
<stop offset="1" stop-color="#C58B00"/>
</linearGradient>
<linearGradient id="paint7_linear_2006_211" x1="215" y1="32.5" x2="254.802" y2="255.392" gradientUnits="userSpaceOnUse">
<stop stop-color="#FFD966"/>
<stop offset="0.5" stop-color="#F4B400"/>
<stop offset="1" stop-color="#C58B00"/>
</linearGradient>
<linearGradient id="paint8_linear_2006_211" x1="215" y1="32.5" x2="254.802" y2="255.392" gradientUnits="userSpaceOnUse">
<stop stop-color="#FFD966"/>
<stop offset="0.5" stop-color="#F4B400"/>
<stop offset="1" stop-color="#C58B00"/>
</linearGradient>
<linearGradient id="paint9_linear_2006_211" x1="215" y1="32.5" x2="254.802" y2="255.392" gradientUnits="userSpaceOnUse">
<stop stop-color="#FFD966"/>
<stop offset="0.5" stop-color="#F4B400"/>
<stop offset="1" stop-color="#C58B00"/>
</linearGradient>
</defs>
</svg>
